<mxfile host="app.diagrams.net" modified="2024-01-18T11:50:57.774Z" agent="Mozilla/5.0 (Macintosh; Intel Mac OS X 10_15_7) AppleWebKit/537.36 (KHTML, like Gecko) Chrome/120.0.0.0 Safari/537.36" etag="aac6-QyWeUvcbe67gcLz" version="22.1.21" type="github">
  <diagram id="C5RBs43oDa-KdzZeNtuy" name="Page-1">
    <mxGraphModel dx="1493" dy="636" grid="1" gridSize="10" guides="1" tooltips="1" connect="1" arrows="1" fold="1" page="1" pageScale="1" pageWidth="827" pageHeight="1169" math="0" shadow="0">
      <root>
        <mxCell id="WIyWlLk6GJQsqaUBKTNV-0" />
        <mxCell id="WIyWlLk6GJQsqaUBKTNV-1" parent="WIyWlLk6GJQsqaUBKTNV-0" />
        <mxCell id="vHvhzQN4755NLP-bqCto-0" value="开始" style="rounded=1;whiteSpace=wrap;html=1;" vertex="1" parent="WIyWlLk6GJQsqaUBKTNV-1">
          <mxGeometry x="180" y="100" width="70" height="40" as="geometry" />
        </mxCell>
        <mxCell id="vHvhzQN4755NLP-bqCto-1" value="结束" style="rounded=1;whiteSpace=wrap;html=1;" vertex="1" parent="WIyWlLk6GJQsqaUBKTNV-1">
          <mxGeometry x="279" y="620" width="70" height="40" as="geometry" />
        </mxCell>
        <mxCell id="vHvhzQN4755NLP-bqCto-11" style="edgeStyle=orthogonalEdgeStyle;rounded=0;orthogonalLoop=1;jettySize=auto;html=1;exitX=0.5;exitY=1;exitDx=0;exitDy=0;entryX=0.5;entryY=0;entryDx=0;entryDy=0;" edge="1" parent="WIyWlLk6GJQsqaUBKTNV-1" source="vHvhzQN4755NLP-bqCto-2" target="vHvhzQN4755NLP-bqCto-3">
          <mxGeometry relative="1" as="geometry" />
        </mxCell>
        <mxCell id="vHvhzQN4755NLP-bqCto-2" value="用户单点登录" style="rounded=0;whiteSpace=wrap;html=1;" vertex="1" parent="WIyWlLk6GJQsqaUBKTNV-1">
          <mxGeometry x="157.5" y="190" width="115" height="50" as="geometry" />
        </mxCell>
        <mxCell id="vHvhzQN4755NLP-bqCto-6" style="edgeStyle=orthogonalEdgeStyle;rounded=0;orthogonalLoop=1;jettySize=auto;html=1;exitX=0.5;exitY=1;exitDx=0;exitDy=0;" edge="1" parent="WIyWlLk6GJQsqaUBKTNV-1" source="vHvhzQN4755NLP-bqCto-3">
          <mxGeometry relative="1" as="geometry">
            <mxPoint x="215" y="410" as="targetPoint" />
          </mxGeometry>
        </mxCell>
        <mxCell id="vHvhzQN4755NLP-bqCto-13" value="是" style="edgeLabel;html=1;align=center;verticalAlign=middle;resizable=0;points=[];" vertex="1" connectable="0" parent="vHvhzQN4755NLP-bqCto-6">
          <mxGeometry x="-0.2067" relative="1" as="geometry">
            <mxPoint as="offset" />
          </mxGeometry>
        </mxCell>
        <mxCell id="vHvhzQN4755NLP-bqCto-9" style="edgeStyle=orthogonalEdgeStyle;rounded=0;orthogonalLoop=1;jettySize=auto;html=1;exitX=0;exitY=0.5;exitDx=0;exitDy=0;" edge="1" parent="WIyWlLk6GJQsqaUBKTNV-1" source="vHvhzQN4755NLP-bqCto-3" target="vHvhzQN4755NLP-bqCto-7">
          <mxGeometry relative="1" as="geometry" />
        </mxCell>
        <mxCell id="vHvhzQN4755NLP-bqCto-12" value="否" style="edgeLabel;html=1;align=center;verticalAlign=middle;resizable=0;points=[];" vertex="1" connectable="0" parent="vHvhzQN4755NLP-bqCto-9">
          <mxGeometry x="0.0857" y="-2" relative="1" as="geometry">
            <mxPoint y="1" as="offset" />
          </mxGeometry>
        </mxCell>
        <mxCell id="vHvhzQN4755NLP-bqCto-3" value="查询小步接口判断用户是否有换课资格" style="rhombus;whiteSpace=wrap;html=1;" vertex="1" parent="WIyWlLk6GJQsqaUBKTNV-1">
          <mxGeometry x="150" y="290" width="130" height="60" as="geometry" />
        </mxCell>
        <mxCell id="vHvhzQN4755NLP-bqCto-8" style="edgeStyle=orthogonalEdgeStyle;rounded=0;orthogonalLoop=1;jettySize=auto;html=1;exitX=0.5;exitY=1;exitDx=0;exitDy=0;entryX=0;entryY=0.5;entryDx=0;entryDy=0;" edge="1" parent="WIyWlLk6GJQsqaUBKTNV-1" source="vHvhzQN4755NLP-bqCto-7" target="vHvhzQN4755NLP-bqCto-1">
          <mxGeometry relative="1" as="geometry" />
        </mxCell>
        <mxCell id="vHvhzQN4755NLP-bqCto-7" value="提示无换课资格" style="rounded=0;whiteSpace=wrap;html=1;" vertex="1" parent="WIyWlLk6GJQsqaUBKTNV-1">
          <mxGeometry x="20" y="410" width="110" height="50" as="geometry" />
        </mxCell>
        <mxCell id="vHvhzQN4755NLP-bqCto-10" style="edgeStyle=orthogonalEdgeStyle;rounded=0;orthogonalLoop=1;jettySize=auto;html=1;exitX=0.5;exitY=1;exitDx=0;exitDy=0;entryX=0.5;entryY=0;entryDx=0;entryDy=0;" edge="1" parent="WIyWlLk6GJQsqaUBKTNV-1" source="vHvhzQN4755NLP-bqCto-0" target="vHvhzQN4755NLP-bqCto-2">
          <mxGeometry relative="1" as="geometry" />
        </mxCell>
        <mxCell id="vHvhzQN4755NLP-bqCto-16" style="edgeStyle=orthogonalEdgeStyle;rounded=0;orthogonalLoop=1;jettySize=auto;html=1;exitX=0.5;exitY=1;exitDx=0;exitDy=0;entryX=0.5;entryY=0;entryDx=0;entryDy=0;" edge="1" parent="WIyWlLk6GJQsqaUBKTNV-1" source="vHvhzQN4755NLP-bqCto-14" target="vHvhzQN4755NLP-bqCto-15">
          <mxGeometry relative="1" as="geometry" />
        </mxCell>
        <mxCell id="vHvhzQN4755NLP-bqCto-14" value="跳转兑换页" style="rounded=0;whiteSpace=wrap;html=1;" vertex="1" parent="WIyWlLk6GJQsqaUBKTNV-1">
          <mxGeometry x="157.5" y="410" width="115" height="50" as="geometry" />
        </mxCell>
        <mxCell id="vHvhzQN4755NLP-bqCto-15" value="点击立即兑换" style="rounded=0;whiteSpace=wrap;html=1;" vertex="1" parent="WIyWlLk6GJQsqaUBKTNV-1">
          <mxGeometry x="157.5" y="510" width="115" height="50" as="geometry" />
        </mxCell>
        <mxCell id="vHvhzQN4755NLP-bqCto-22" style="edgeStyle=orthogonalEdgeStyle;rounded=0;orthogonalLoop=1;jettySize=auto;html=1;exitX=1;exitY=0.5;exitDx=0;exitDy=0;entryX=0.5;entryY=0;entryDx=0;entryDy=0;" edge="1" parent="WIyWlLk6GJQsqaUBKTNV-1" source="vHvhzQN4755NLP-bqCto-17" target="vHvhzQN4755NLP-bqCto-21">
          <mxGeometry relative="1" as="geometry" />
        </mxCell>
        <mxCell id="vHvhzQN4755NLP-bqCto-24" value="否" style="edgeLabel;html=1;align=center;verticalAlign=middle;resizable=0;points=[];" vertex="1" connectable="0" parent="vHvhzQN4755NLP-bqCto-22">
          <mxGeometry x="-0.123" y="3" relative="1" as="geometry">
            <mxPoint as="offset" />
          </mxGeometry>
        </mxCell>
        <mxCell id="vHvhzQN4755NLP-bqCto-36" style="edgeStyle=orthogonalEdgeStyle;rounded=0;orthogonalLoop=1;jettySize=auto;html=1;exitX=0.5;exitY=0;exitDx=0;exitDy=0;entryX=0.5;entryY=1;entryDx=0;entryDy=0;" edge="1" parent="WIyWlLk6GJQsqaUBKTNV-1" source="vHvhzQN4755NLP-bqCto-17" target="vHvhzQN4755NLP-bqCto-25">
          <mxGeometry relative="1" as="geometry" />
        </mxCell>
        <mxCell id="vHvhzQN4755NLP-bqCto-37" value="是" style="edgeLabel;html=1;align=center;verticalAlign=middle;resizable=0;points=[];" vertex="1" connectable="0" parent="vHvhzQN4755NLP-bqCto-36">
          <mxGeometry x="0.0105" y="-2" relative="1" as="geometry">
            <mxPoint as="offset" />
          </mxGeometry>
        </mxCell>
        <mxCell id="vHvhzQN4755NLP-bqCto-17" value="判断用户的余额是否大于或等于课包价格" style="rhombus;whiteSpace=wrap;html=1;" vertex="1" parent="WIyWlLk6GJQsqaUBKTNV-1">
          <mxGeometry x="349" y="505" width="130" height="60" as="geometry" />
        </mxCell>
        <mxCell id="vHvhzQN4755NLP-bqCto-18" style="edgeStyle=orthogonalEdgeStyle;rounded=0;orthogonalLoop=1;jettySize=auto;html=1;exitX=1;exitY=0.5;exitDx=0;exitDy=0;entryX=0;entryY=0.5;entryDx=0;entryDy=0;" edge="1" parent="WIyWlLk6GJQsqaUBKTNV-1" source="vHvhzQN4755NLP-bqCto-15" target="vHvhzQN4755NLP-bqCto-17">
          <mxGeometry relative="1" as="geometry" />
        </mxCell>
        <mxCell id="vHvhzQN4755NLP-bqCto-23" style="edgeStyle=orthogonalEdgeStyle;rounded=0;orthogonalLoop=1;jettySize=auto;html=1;exitX=0.5;exitY=1;exitDx=0;exitDy=0;entryX=1;entryY=0.5;entryDx=0;entryDy=0;" edge="1" parent="WIyWlLk6GJQsqaUBKTNV-1" source="vHvhzQN4755NLP-bqCto-21" target="vHvhzQN4755NLP-bqCto-1">
          <mxGeometry relative="1" as="geometry" />
        </mxCell>
        <mxCell id="vHvhzQN4755NLP-bqCto-21" value="提示余额不足" style="rounded=0;whiteSpace=wrap;html=1;" vertex="1" parent="WIyWlLk6GJQsqaUBKTNV-1">
          <mxGeometry x="490" y="560" width="115" height="40" as="geometry" />
        </mxCell>
        <mxCell id="vHvhzQN4755NLP-bqCto-35" style="edgeStyle=orthogonalEdgeStyle;rounded=0;orthogonalLoop=1;jettySize=auto;html=1;exitX=1;exitY=0.5;exitDx=0;exitDy=0;entryX=0;entryY=0.5;entryDx=0;entryDy=0;" edge="1" parent="WIyWlLk6GJQsqaUBKTNV-1" source="vHvhzQN4755NLP-bqCto-25" target="vHvhzQN4755NLP-bqCto-26">
          <mxGeometry relative="1" as="geometry" />
        </mxCell>
        <mxCell id="vHvhzQN4755NLP-bqCto-38" value="否" style="edgeLabel;html=1;align=center;verticalAlign=middle;resizable=0;points=[];" vertex="1" connectable="0" parent="vHvhzQN4755NLP-bqCto-35">
          <mxGeometry x="-0.3041" relative="1" as="geometry">
            <mxPoint as="offset" />
          </mxGeometry>
        </mxCell>
        <mxCell id="vHvhzQN4755NLP-bqCto-42" style="edgeStyle=orthogonalEdgeStyle;rounded=0;orthogonalLoop=1;jettySize=auto;html=1;exitX=0.5;exitY=0;exitDx=0;exitDy=0;entryX=0.5;entryY=1;entryDx=0;entryDy=0;" edge="1" parent="WIyWlLk6GJQsqaUBKTNV-1" source="vHvhzQN4755NLP-bqCto-25" target="vHvhzQN4755NLP-bqCto-41">
          <mxGeometry relative="1" as="geometry" />
        </mxCell>
        <mxCell id="vHvhzQN4755NLP-bqCto-43" value="是" style="edgeLabel;html=1;align=center;verticalAlign=middle;resizable=0;points=[];" vertex="1" connectable="0" parent="vHvhzQN4755NLP-bqCto-42">
          <mxGeometry x="-0.01" y="1" relative="1" as="geometry">
            <mxPoint as="offset" />
          </mxGeometry>
        </mxCell>
        <mxCell id="vHvhzQN4755NLP-bqCto-25" value="判断该手机号是否换过小步特定课包" style="rhombus;whiteSpace=wrap;html=1;" vertex="1" parent="WIyWlLk6GJQsqaUBKTNV-1">
          <mxGeometry x="349" y="350" width="130" height="60" as="geometry" />
        </mxCell>
        <mxCell id="vHvhzQN4755NLP-bqCto-28" value="" style="edgeStyle=orthogonalEdgeStyle;rounded=0;orthogonalLoop=1;jettySize=auto;html=1;" edge="1" parent="WIyWlLk6GJQsqaUBKTNV-1" source="vHvhzQN4755NLP-bqCto-26" target="vHvhzQN4755NLP-bqCto-27">
          <mxGeometry relative="1" as="geometry" />
        </mxCell>
        <mxCell id="vHvhzQN4755NLP-bqCto-33" value="否" style="edgeLabel;html=1;align=center;verticalAlign=middle;resizable=0;points=[];" vertex="1" connectable="0" parent="vHvhzQN4755NLP-bqCto-28">
          <mxGeometry x="0.0667" relative="1" as="geometry">
            <mxPoint as="offset" />
          </mxGeometry>
        </mxCell>
        <mxCell id="vHvhzQN4755NLP-bqCto-46" style="edgeStyle=orthogonalEdgeStyle;rounded=0;orthogonalLoop=1;jettySize=auto;html=1;exitX=0.5;exitY=0;exitDx=0;exitDy=0;entryX=0.5;entryY=1;entryDx=0;entryDy=0;" edge="1" parent="WIyWlLk6GJQsqaUBKTNV-1" source="vHvhzQN4755NLP-bqCto-26" target="vHvhzQN4755NLP-bqCto-45">
          <mxGeometry relative="1" as="geometry" />
        </mxCell>
        <mxCell id="vHvhzQN4755NLP-bqCto-47" value="是" style="edgeLabel;html=1;align=center;verticalAlign=middle;resizable=0;points=[];" vertex="1" connectable="0" parent="vHvhzQN4755NLP-bqCto-46">
          <mxGeometry x="0.1167" y="2" relative="1" as="geometry">
            <mxPoint as="offset" />
          </mxGeometry>
        </mxCell>
        <mxCell id="vHvhzQN4755NLP-bqCto-26" value="换课的手机号是否为当前账号uid" style="rhombus;whiteSpace=wrap;html=1;" vertex="1" parent="WIyWlLk6GJQsqaUBKTNV-1">
          <mxGeometry x="590" y="355" width="130" height="50" as="geometry" />
        </mxCell>
        <mxCell id="vHvhzQN4755NLP-bqCto-32" style="edgeStyle=orthogonalEdgeStyle;rounded=0;orthogonalLoop=1;jettySize=auto;html=1;exitX=1;exitY=0.5;exitDx=0;exitDy=0;entryX=1;entryY=0.5;entryDx=0;entryDy=0;" edge="1" parent="WIyWlLk6GJQsqaUBKTNV-1" source="vHvhzQN4755NLP-bqCto-27" target="vHvhzQN4755NLP-bqCto-1">
          <mxGeometry relative="1" as="geometry">
            <Array as="points">
              <mxPoint x="650" y="475" />
              <mxPoint x="650" y="640" />
            </Array>
          </mxGeometry>
        </mxCell>
        <mxCell id="vHvhzQN4755NLP-bqCto-27" value="提示该手机号已领取过相关课程" style="rounded=0;whiteSpace=wrap;html=1;" vertex="1" parent="WIyWlLk6GJQsqaUBKTNV-1">
          <mxGeometry x="597.5" y="460" width="115" height="50" as="geometry" />
        </mxCell>
        <mxCell id="vHvhzQN4755NLP-bqCto-44" style="edgeStyle=orthogonalEdgeStyle;rounded=0;orthogonalLoop=1;jettySize=auto;html=1;exitX=1;exitY=0.5;exitDx=0;exitDy=0;" edge="1" parent="WIyWlLk6GJQsqaUBKTNV-1" source="vHvhzQN4755NLP-bqCto-41">
          <mxGeometry relative="1" as="geometry">
            <mxPoint x="590" y="270" as="targetPoint" />
          </mxGeometry>
        </mxCell>
        <mxCell id="vHvhzQN4755NLP-bqCto-49" value="是" style="edgeLabel;html=1;align=center;verticalAlign=middle;resizable=0;points=[];" vertex="1" connectable="0" parent="vHvhzQN4755NLP-bqCto-44">
          <mxGeometry x="0.0838" y="5" relative="1" as="geometry">
            <mxPoint as="offset" />
          </mxGeometry>
        </mxCell>
        <mxCell id="vHvhzQN4755NLP-bqCto-50" style="edgeStyle=orthogonalEdgeStyle;rounded=0;orthogonalLoop=1;jettySize=auto;html=1;exitX=0.5;exitY=0;exitDx=0;exitDy=0;" edge="1" parent="WIyWlLk6GJQsqaUBKTNV-1" source="vHvhzQN4755NLP-bqCto-41">
          <mxGeometry relative="1" as="geometry">
            <mxPoint x="414.5" y="190" as="targetPoint" />
          </mxGeometry>
        </mxCell>
        <mxCell id="vHvhzQN4755NLP-bqCto-41" value="判断该用户是否购买过互斥的进阶课" style="rhombus;whiteSpace=wrap;html=1;" vertex="1" parent="WIyWlLk6GJQsqaUBKTNV-1">
          <mxGeometry x="349" y="240" width="130" height="60" as="geometry" />
        </mxCell>
        <mxCell id="vHvhzQN4755NLP-bqCto-48" style="edgeStyle=orthogonalEdgeStyle;rounded=0;orthogonalLoop=1;jettySize=auto;html=1;exitX=1;exitY=0.5;exitDx=0;exitDy=0;entryX=0.5;entryY=1;entryDx=0;entryDy=0;" edge="1" parent="WIyWlLk6GJQsqaUBKTNV-1" source="vHvhzQN4755NLP-bqCto-45" target="vHvhzQN4755NLP-bqCto-1">
          <mxGeometry relative="1" as="geometry" />
        </mxCell>
        <mxCell id="vHvhzQN4755NLP-bqCto-45" value="跳转已购买过同类型课程页面" style="rounded=0;whiteSpace=wrap;html=1;" vertex="1" parent="WIyWlLk6GJQsqaUBKTNV-1">
          <mxGeometry x="597.5" y="245" width="115" height="50" as="geometry" />
        </mxCell>
        <mxCell id="vHvhzQN4755NLP-bqCto-52" style="edgeStyle=orthogonalEdgeStyle;rounded=0;orthogonalLoop=1;jettySize=auto;html=1;exitX=1;exitY=0.5;exitDx=0;exitDy=0;entryX=0;entryY=0.5;entryDx=0;entryDy=0;" edge="1" parent="WIyWlLk6GJQsqaUBKTNV-1" source="vHvhzQN4755NLP-bqCto-51" target="vHvhzQN4755NLP-bqCto-53">
          <mxGeometry relative="1" as="geometry">
            <mxPoint x="620" y="165" as="targetPoint" />
          </mxGeometry>
        </mxCell>
        <mxCell id="vHvhzQN4755NLP-bqCto-51" value="根据课包id领取相应活动的兑换码" style="rounded=0;whiteSpace=wrap;html=1;" vertex="1" parent="WIyWlLk6GJQsqaUBKTNV-1">
          <mxGeometry x="356" y="140" width="115" height="50" as="geometry" />
        </mxCell>
        <mxCell id="vHvhzQN4755NLP-bqCto-57" style="edgeStyle=orthogonalEdgeStyle;rounded=0;orthogonalLoop=1;jettySize=auto;html=1;exitX=1;exitY=0.5;exitDx=0;exitDy=0;" edge="1" parent="WIyWlLk6GJQsqaUBKTNV-1" source="vHvhzQN4755NLP-bqCto-53">
          <mxGeometry relative="1" as="geometry">
            <mxPoint x="710" y="165.25" as="targetPoint" />
          </mxGeometry>
        </mxCell>
        <mxCell id="vHvhzQN4755NLP-bqCto-53" value="使用兑换码换课" style="rounded=0;whiteSpace=wrap;html=1;" vertex="1" parent="WIyWlLk6GJQsqaUBKTNV-1">
          <mxGeometry x="550" y="140" width="90" height="50" as="geometry" />
        </mxCell>
        <mxCell id="vHvhzQN4755NLP-bqCto-62" style="edgeStyle=orthogonalEdgeStyle;rounded=0;orthogonalLoop=1;jettySize=auto;html=1;exitX=1;exitY=0.5;exitDx=0;exitDy=0;entryX=1;entryY=0.5;entryDx=0;entryDy=0;" edge="1" parent="WIyWlLk6GJQsqaUBKTNV-1" source="vHvhzQN4755NLP-bqCto-56" target="vHvhzQN4755NLP-bqCto-1">
          <mxGeometry relative="1" as="geometry" />
        </mxCell>
        <mxCell id="vHvhzQN4755NLP-bqCto-56" value="回传小步换课成功结果" style="rounded=0;whiteSpace=wrap;html=1;" vertex="1" parent="WIyWlLk6GJQsqaUBKTNV-1">
          <mxGeometry x="712.5" y="140" width="90" height="50" as="geometry" />
        </mxCell>
      </root>
    </mxGraphModel>
  </diagram>
</mxfile>
